<?xml version="1.0" encoding="UTF-8"?>
<svg xmlns="http://www.w3.org/2000/svg" viewBox="0 0 215.9 279.4" width="215.9mm" height="279.4mm">
  <style>
    .cell { fill: none; stroke: #ccc; stroke-width: 0.3; }
    .baseline { stroke: #ddd; stroke-width: 0.2; stroke-dasharray: 2,2; }
    .label { font-family: Arial, sans-serif; font-size: 4.8px; fill: #999; text-anchor: middle; }
    .title { font-family: Arial, sans-serif; font-size: 4px; fill: #666; }
    .crop-mark { stroke: #000; stroke-width: 0.3; }
    .cut-label { font-family: Arial, sans-serif; font-size: 3px; fill: #999; }
  </style>
  <rect x="0" y="0" width="215.9" height="279.4" fill="white"/>

  <!-- Crop marks for cutting to A5 -->
  <!-- Top-left corner -->
  <line x1="2.950000000000003" y1="57.69999999999999" x2="2.950000000000003" y2="65.69999999999999" class="crop-mark"/>
  <line x1="-5.049999999999997" y1="65.69999999999999" x2="2.950000000000003" y2="65.69999999999999" class="crop-mark"/>
  <!-- Top-right corner -->
  <line x1="212.95" y1="57.69999999999999" x2="212.95" y2="65.69999999999999" class="crop-mark"/>
  <line x1="212.95" y1="65.69999999999999" x2="220.95" y2="65.69999999999999" class="crop-mark"/>
  <!-- Bottom-left corner -->
  <line x1="2.950000000000003" y1="213.7" x2="2.950000000000003" y2="221.7" class="crop-mark"/>
  <line x1="-5.049999999999997" y1="213.7" x2="2.950000000000003" y2="213.7" class="crop-mark"/>
  <!-- Bottom-right corner -->
  <line x1="212.95" y1="213.7" x2="212.95" y2="221.7" class="crop-mark"/>
  <line x1="212.95" y1="213.7" x2="220.95" y2="213.7" class="crop-mark"/>

  <text x="107.95" y="53.69999999999999" class="cut-label" text-anchor="middle">Cut along crop marks (A5: 210 x 148 mm)</text>

  <!-- Template area border (light) -->
  <rect x="2.950000000000003" y="65.69999999999999" width="210" height="148" fill="none" stroke="#eee" stroke-width="0.2"/>

  <!-- Title inside template area -->
  <text x="12.950000000000003" y="73.69999999999999" class="title">WriteTyper Glyph Template - Lowercase (a-z)</text>
  <rect x="12.950000000000003" y="75.69999999999999" width="31.666666666666668" height="25.6" class="cell"/>
  <line x1="14.950000000000003" y1="94.89999999999999" x2="42.616666666666674" y2="94.89999999999999" class="baseline"/>
  <text x="28.78333333333334" y="83.69999999999999" class="label">a</text>
  <rect x="44.616666666666674" y="75.69999999999999" width="31.666666666666668" height="25.6" class="cell"/>
  <line x1="46.616666666666674" y1="94.89999999999999" x2="74.28333333333335" y2="94.89999999999999" class="baseline"/>
  <text x="60.45000000000001" y="83.69999999999999" class="label">b</text>
  <rect x="76.28333333333333" y="75.69999999999999" width="31.666666666666668" height="25.6" class="cell"/>
  <line x1="78.28333333333333" y1="94.89999999999999" x2="105.95" y2="94.89999999999999" class="baseline"/>
  <text x="92.11666666666666" y="83.69999999999999" class="label">c</text>
  <rect x="107.95" y="75.69999999999999" width="31.666666666666668" height="25.6" class="cell"/>
  <line x1="109.95" y1="94.89999999999999" x2="137.61666666666667" y2="94.89999999999999" class="baseline"/>
  <text x="123.78333333333333" y="83.69999999999999" class="label">d</text>
  <rect x="139.61666666666667" y="75.69999999999999" width="31.666666666666668" height="25.6" class="cell"/>
  <line x1="141.61666666666667" y1="94.89999999999999" x2="169.28333333333333" y2="94.89999999999999" class="baseline"/>
  <text x="155.45000000000002" y="83.69999999999999" class="label">e</text>
  <rect x="171.28333333333336" y="75.69999999999999" width="31.666666666666668" height="25.6" class="cell"/>
  <line x1="173.28333333333336" y1="94.89999999999999" x2="200.95000000000002" y2="94.89999999999999" class="baseline"/>
  <text x="187.1166666666667" y="83.69999999999999" class="label">f</text>
  <rect x="12.950000000000003" y="101.29999999999998" width="31.666666666666668" height="25.6" class="cell"/>
  <line x1="14.950000000000003" y1="120.49999999999999" x2="42.616666666666674" y2="120.49999999999999" class="baseline"/>
  <text x="28.78333333333334" y="109.29999999999998" class="label">g</text>
  <rect x="44.616666666666674" y="101.29999999999998" width="31.666666666666668" height="25.6" class="cell"/>
  <line x1="46.616666666666674" y1="120.49999999999999" x2="74.28333333333335" y2="120.49999999999999" class="baseline"/>
  <text x="60.45000000000001" y="109.29999999999998" class="label">h</text>
  <rect x="76.28333333333333" y="101.29999999999998" width="31.666666666666668" height="25.6" class="cell"/>
  <line x1="78.28333333333333" y1="120.49999999999999" x2="105.95" y2="120.49999999999999" class="baseline"/>
  <text x="92.11666666666666" y="109.29999999999998" class="label">i</text>
  <rect x="107.95" y="101.29999999999998" width="31.666666666666668" height="25.6" class="cell"/>
  <line x1="109.95" y1="120.49999999999999" x2="137.61666666666667" y2="120.49999999999999" class="baseline"/>
  <text x="123.78333333333333" y="109.29999999999998" class="label">j</text>
  <rect x="139.61666666666667" y="101.29999999999998" width="31.666666666666668" height="25.6" class="cell"/>
  <line x1="141.61666666666667" y1="120.49999999999999" x2="169.28333333333333" y2="120.49999999999999" class="baseline"/>
  <text x="155.45000000000002" y="109.29999999999998" class="label">k</text>
  <rect x="171.28333333333336" y="101.29999999999998" width="31.666666666666668" height="25.6" class="cell"/>
  <line x1="173.28333333333336" y1="120.49999999999999" x2="200.95000000000002" y2="120.49999999999999" class="baseline"/>
  <text x="187.1166666666667" y="109.29999999999998" class="label">l</text>
  <rect x="12.950000000000003" y="126.89999999999999" width="31.666666666666668" height="25.6" class="cell"/>
  <line x1="14.950000000000003" y1="146.1" x2="42.616666666666674" y2="146.1" class="baseline"/>
  <text x="28.78333333333334" y="134.89999999999998" class="label">m</text>
  <rect x="44.616666666666674" y="126.89999999999999" width="31.666666666666668" height="25.6" class="cell"/>
  <line x1="46.616666666666674" y1="146.1" x2="74.28333333333335" y2="146.1" class="baseline"/>
  <text x="60.45000000000001" y="134.89999999999998" class="label">n</text>
  <rect x="76.28333333333333" y="126.89999999999999" width="31.666666666666668" height="25.6" class="cell"/>
  <line x1="78.28333333333333" y1="146.1" x2="105.95" y2="146.1" class="baseline"/>
  <text x="92.11666666666666" y="134.89999999999998" class="label">o</text>
  <rect x="107.95" y="126.89999999999999" width="31.666666666666668" height="25.6" class="cell"/>
  <line x1="109.95" y1="146.1" x2="137.61666666666667" y2="146.1" class="baseline"/>
  <text x="123.78333333333333" y="134.89999999999998" class="label">p</text>
  <rect x="139.61666666666667" y="126.89999999999999" width="31.666666666666668" height="25.6" class="cell"/>
  <line x1="141.61666666666667" y1="146.1" x2="169.28333333333333" y2="146.1" class="baseline"/>
  <text x="155.45000000000002" y="134.89999999999998" class="label">q</text>
  <rect x="171.28333333333336" y="126.89999999999999" width="31.666666666666668" height="25.6" class="cell"/>
  <line x1="173.28333333333336" y1="146.1" x2="200.95000000000002" y2="146.1" class="baseline"/>
  <text x="187.1166666666667" y="134.89999999999998" class="label">r</text>
  <rect x="12.950000000000003" y="152.5" width="31.666666666666668" height="25.6" class="cell"/>
  <line x1="14.950000000000003" y1="171.7" x2="42.616666666666674" y2="171.7" class="baseline"/>
  <text x="28.78333333333334" y="160.5" class="label">s</text>
  <rect x="44.616666666666674" y="152.5" width="31.666666666666668" height="25.6" class="cell"/>
  <line x1="46.616666666666674" y1="171.7" x2="74.28333333333335" y2="171.7" class="baseline"/>
  <text x="60.45000000000001" y="160.5" class="label">t</text>
  <rect x="76.28333333333333" y="152.5" width="31.666666666666668" height="25.6" class="cell"/>
  <line x1="78.28333333333333" y1="171.7" x2="105.95" y2="171.7" class="baseline"/>
  <text x="92.11666666666666" y="160.5" class="label">u</text>
  <rect x="107.95" y="152.5" width="31.666666666666668" height="25.6" class="cell"/>
  <line x1="109.95" y1="171.7" x2="137.61666666666667" y2="171.7" class="baseline"/>
  <text x="123.78333333333333" y="160.5" class="label">v</text>
  <rect x="139.61666666666667" y="152.5" width="31.666666666666668" height="25.6" class="cell"/>
  <line x1="141.61666666666667" y1="171.7" x2="169.28333333333333" y2="171.7" class="baseline"/>
  <text x="155.45000000000002" y="160.5" class="label">w</text>
  <rect x="171.28333333333336" y="152.5" width="31.666666666666668" height="25.6" class="cell"/>
  <line x1="173.28333333333336" y1="171.7" x2="200.95000000000002" y2="171.7" class="baseline"/>
  <text x="187.1166666666667" y="160.5" class="label">x</text>
  <rect x="12.950000000000003" y="178.1" width="31.666666666666668" height="25.6" class="cell"/>
  <line x1="14.950000000000003" y1="197.3" x2="42.616666666666674" y2="197.3" class="baseline"/>
  <text x="28.78333333333334" y="186.1" class="label">y</text>
  <rect x="44.616666666666674" y="178.1" width="31.666666666666668" height="25.6" class="cell"/>
  <line x1="46.616666666666674" y1="197.3" x2="74.28333333333335" y2="197.3" class="baseline"/>
  <text x="60.45000000000001" y="186.1" class="label">z</text>
</svg>